<mxfile host="app.diagrams.net" modified="2023-12-08T13:30:25.145Z" agent="Mozilla/5.0 (Windows NT 10.0; Win64; x64; rv:120.0) Gecko/20100101 Firefox/120.0" etag="18Poa9QjCdI_WoQHstNe" version="22.1.7" type="device">
  <diagram name="Page-1" id="74e2e168-ea6b-b213-b513-2b3c1d86103e">
    <mxGraphModel dx="1434" dy="726" grid="1" gridSize="10" guides="1" tooltips="1" connect="1" arrows="1" fold="1" page="1" pageScale="1" pageWidth="1100" pageHeight="850" background="none" math="0" shadow="0">
      <root>
        <mxCell id="0" />
        <mxCell id="1" parent="0" />
        <mxCell id="iNq4XqtJbvF7u8kQayWp-2" value="&lt;div&gt;&quot;Willkommen im Restaurant &#39;FIAE A&#39;.&lt;/div&gt;&lt;div&gt;Wir bieten Pizza und Pasta an. Was möchten Sie Bestellen?&quot;&lt;br&gt;&lt;/div&gt;" style="rounded=1;whiteSpace=wrap;html=1;" parent="1" vertex="1">
          <mxGeometry x="360" y="20" width="150" height="80" as="geometry" />
        </mxCell>
        <mxCell id="iNq4XqtJbvF7u8kQayWp-5" value="" style="endArrow=none;html=1;rounded=0;exitX=0.647;exitY=-0.029;exitDx=0;exitDy=0;exitPerimeter=0;entryX=0.221;entryY=0.744;entryDx=0;entryDy=0;entryPerimeter=0;" parent="1" source="iNq4XqtJbvF7u8kQayWp-16" target="iNq4XqtJbvF7u8kQayWp-19" edge="1">
          <mxGeometry width="50" height="50" relative="1" as="geometry">
            <mxPoint x="410" y="400" as="sourcePoint" />
            <mxPoint x="490" y="310" as="targetPoint" />
          </mxGeometry>
        </mxCell>
        <mxCell id="iNq4XqtJbvF7u8kQayWp-7" value="Pizza" style="edgeLabel;html=1;align=center;verticalAlign=middle;resizable=0;points=[];fontSize=16;" parent="iNq4XqtJbvF7u8kQayWp-5" vertex="1" connectable="0">
          <mxGeometry x="-0.2154" relative="1" as="geometry">
            <mxPoint as="offset" />
          </mxGeometry>
        </mxCell>
        <mxCell id="iNq4XqtJbvF7u8kQayWp-8" value="" style="endArrow=none;html=1;rounded=0;entryX=0.294;entryY=-0.053;entryDx=0;entryDy=0;entryPerimeter=0;exitX=1;exitY=1;exitDx=0;exitDy=0;" parent="1" source="iNq4XqtJbvF7u8kQayWp-19" target="iNq4XqtJbvF7u8kQayWp-18" edge="1">
          <mxGeometry width="50" height="50" relative="1" as="geometry">
            <mxPoint x="596.1538461538462" y="301.53846153846143" as="sourcePoint" />
            <mxPoint x="707.96" y="390.03" as="targetPoint" />
          </mxGeometry>
        </mxCell>
        <mxCell id="iNq4XqtJbvF7u8kQayWp-10" value="Pasta" style="edgeLabel;html=1;align=center;verticalAlign=middle;resizable=0;points=[];fontSize=16;" parent="iNq4XqtJbvF7u8kQayWp-8" vertex="1" connectable="0">
          <mxGeometry x="-0.0393" y="-3" relative="1" as="geometry">
            <mxPoint x="18" y="8" as="offset" />
          </mxGeometry>
        </mxCell>
        <mxCell id="iNq4XqtJbvF7u8kQayWp-15" value="" style="endArrow=none;html=1;rounded=0;entryX=0.5;entryY=1;entryDx=0;entryDy=0;exitX=0.5;exitY=0;exitDx=0;exitDy=0;" parent="1" source="iNq4XqtJbvF7u8kQayWp-19" target="iNq4XqtJbvF7u8kQayWp-2" edge="1">
          <mxGeometry width="50" height="50" relative="1" as="geometry">
            <mxPoint x="550" y="260" as="sourcePoint" />
            <mxPoint x="550" y="440" as="targetPoint" />
          </mxGeometry>
        </mxCell>
        <mxCell id="iNq4XqtJbvF7u8kQayWp-16" value="&lt;div&gt;import from speisekarte&lt;/div&gt;&lt;div&gt;sauce = user input&lt;/div&gt;&lt;div&gt;zutat1 = user input&lt;/div&gt;&lt;div&gt;zutat2 = user input&lt;/div&gt;&lt;div&gt;zutat3 = user input&lt;br&gt;&lt;/div&gt;" style="shape=parallelogram;perimeter=parallelogramPerimeter;whiteSpace=wrap;html=1;fixedSize=1;" parent="1" vertex="1">
          <mxGeometry x="210" y="250" width="180" height="90" as="geometry" />
        </mxCell>
        <mxCell id="iNq4XqtJbvF7u8kQayWp-18" value="&lt;div&gt;import from speisekarte&lt;/div&gt;&lt;div&gt;nudelsorte = user input&lt;/div&gt;&lt;div&gt;sauce = user input&lt;/div&gt;" style="shape=parallelogram;perimeter=parallelogramPerimeter;whiteSpace=wrap;html=1;fixedSize=1;" parent="1" vertex="1">
          <mxGeometry x="520" y="250" width="180" height="90" as="geometry" />
        </mxCell>
        <mxCell id="iNq4XqtJbvF7u8kQayWp-19" value="&lt;div&gt;user input&lt;/div&gt;Anzahl + 1" style="rhombus;whiteSpace=wrap;html=1;" parent="1" vertex="1">
          <mxGeometry x="340" y="130" width="190" height="90" as="geometry" />
        </mxCell>
        <mxCell id="iNq4XqtJbvF7u8kQayWp-24" value="&quot;Darf es noch etwas sein ?&quot;" style="rhombus;whiteSpace=wrap;html=1;" parent="1" vertex="1">
          <mxGeometry x="405" y="830" width="240" height="100" as="geometry" />
        </mxCell>
        <mxCell id="iNq4XqtJbvF7u8kQayWp-25" value="" style="endArrow=none;html=1;rounded=0;entryX=0;entryY=0.5;entryDx=0;entryDy=0;exitX=0;exitY=0.5;exitDx=0;exitDy=0;" parent="1" source="iNq4XqtJbvF7u8kQayWp-24" target="iNq4XqtJbvF7u8kQayWp-19" edge="1">
          <mxGeometry width="50" height="50" relative="1" as="geometry">
            <mxPoint x="280" y="960" as="sourcePoint" />
            <mxPoint x="110" y="160" as="targetPoint" />
            <Array as="points">
              <mxPoint x="110" y="880" />
              <mxPoint x="110" y="175" />
            </Array>
          </mxGeometry>
        </mxCell>
        <mxCell id="iNq4XqtJbvF7u8kQayWp-26" value="&lt;font style=&quot;font-size: 25px;&quot;&gt;Ja&lt;/font&gt;" style="edgeLabel;html=1;align=center;verticalAlign=middle;resizable=0;points=[];" parent="iNq4XqtJbvF7u8kQayWp-25" vertex="1" connectable="0">
          <mxGeometry x="-0.1302" relative="1" as="geometry">
            <mxPoint as="offset" />
          </mxGeometry>
        </mxCell>
        <mxCell id="iNq4XqtJbvF7u8kQayWp-27" value="" style="endArrow=none;html=1;rounded=0;exitX=0.5;exitY=1;exitDx=0;exitDy=0;entryX=0.5;entryY=0;entryDx=0;entryDy=0;" parent="1" source="iNq4XqtJbvF7u8kQayWp-24" target="iNq4XqtJbvF7u8kQayWp-30" edge="1">
          <mxGeometry width="50" height="50" relative="1" as="geometry">
            <mxPoint x="410" y="500" as="sourcePoint" />
            <mxPoint x="500" y="1000" as="targetPoint" />
          </mxGeometry>
        </mxCell>
        <mxCell id="iNq4XqtJbvF7u8kQayWp-29" value="&lt;font style=&quot;font-size: 21px;&quot;&gt;Nein&lt;/font&gt;" style="edgeLabel;html=1;align=center;verticalAlign=middle;resizable=0;points=[];" parent="iNq4XqtJbvF7u8kQayWp-27" vertex="1" connectable="0">
          <mxGeometry x="-0.12" relative="1" as="geometry">
            <mxPoint as="offset" />
          </mxGeometry>
        </mxCell>
        <mxCell id="iNq4XqtJbvF7u8kQayWp-30" value="import from &#39;bestellung&#39;" style="rounded=0;whiteSpace=wrap;html=1;" parent="1" vertex="1">
          <mxGeometry x="450" y="1000" width="150" height="40" as="geometry" />
        </mxCell>
        <mxCell id="iNq4XqtJbvF7u8kQayWp-31" value="&lt;div&gt;&quot;Danke für ihre Bestellung. Der Preis beträgt:&amp;nbsp; &#39;preis&#39; &quot;&lt;br&gt;&lt;/div&gt;" style="rounded=1;whiteSpace=wrap;html=1;" parent="1" vertex="1">
          <mxGeometry x="447.5" y="1520" width="155" height="81" as="geometry" />
        </mxCell>
        <mxCell id="iNq4XqtJbvF7u8kQayWp-34" value="scharf ?" style="rhombus;whiteSpace=wrap;html=1;" parent="1" vertex="1">
          <mxGeometry x="470" y="560" width="110" height="55" as="geometry" />
        </mxCell>
        <mxCell id="iNq4XqtJbvF7u8kQayWp-36" value="extrakäse ?" style="rhombus;whiteSpace=wrap;html=1;" parent="1" vertex="1">
          <mxGeometry x="247.5" y="380" width="105" height="60" as="geometry" />
        </mxCell>
        <mxCell id="5XZBZ-XUVt3YNOEcqXos-1" value="&lt;div&gt;extrakäse = bool(1)&lt;/div&gt;" style="rounded=0;whiteSpace=wrap;html=1;" parent="1" vertex="1">
          <mxGeometry x="130" y="470" width="190" height="40" as="geometry" />
        </mxCell>
        <mxCell id="5XZBZ-XUVt3YNOEcqXos-2" value="" style="endArrow=none;html=1;rounded=0;exitX=0.5;exitY=0;exitDx=0;exitDy=0;entryX=0.5;entryY=1;entryDx=0;entryDy=0;" parent="1" source="iNq4XqtJbvF7u8kQayWp-36" target="iNq4XqtJbvF7u8kQayWp-16" edge="1">
          <mxGeometry width="50" height="50" relative="1" as="geometry">
            <mxPoint x="460" y="390" as="sourcePoint" />
            <mxPoint x="300" y="350" as="targetPoint" />
          </mxGeometry>
        </mxCell>
        <mxCell id="5XZBZ-XUVt3YNOEcqXos-3" value="" style="endArrow=none;html=1;rounded=0;exitX=0.25;exitY=0;exitDx=0;exitDy=0;entryX=0;entryY=1;entryDx=0;entryDy=0;" parent="1" source="5XZBZ-XUVt3YNOEcqXos-1" target="iNq4XqtJbvF7u8kQayWp-36" edge="1">
          <mxGeometry width="50" height="50" relative="1" as="geometry">
            <mxPoint x="240" y="470" as="sourcePoint" />
            <mxPoint x="370" y="460" as="targetPoint" />
          </mxGeometry>
        </mxCell>
        <mxCell id="5XZBZ-XUVt3YNOEcqXos-6" value="JA" style="edgeLabel;html=1;align=center;verticalAlign=middle;resizable=0;points=[];fontSize=16;" parent="5XZBZ-XUVt3YNOEcqXos-3" vertex="1" connectable="0">
          <mxGeometry x="0.1054" y="2" relative="1" as="geometry">
            <mxPoint as="offset" />
          </mxGeometry>
        </mxCell>
        <mxCell id="5XZBZ-XUVt3YNOEcqXos-5" value="" style="endArrow=none;html=1;rounded=0;entryX=1;entryY=1;entryDx=0;entryDy=0;exitX=0.5;exitY=0;exitDx=0;exitDy=0;" parent="1" source="5XZBZ-XUVt3YNOEcqXos-18" target="iNq4XqtJbvF7u8kQayWp-36" edge="1">
          <mxGeometry width="50" height="50" relative="1" as="geometry">
            <mxPoint x="450" y="480" as="sourcePoint" />
            <mxPoint x="570" y="530" as="targetPoint" />
          </mxGeometry>
        </mxCell>
        <mxCell id="5XZBZ-XUVt3YNOEcqXos-7" value="Nein" style="edgeLabel;html=1;align=center;verticalAlign=middle;resizable=0;points=[];fontSize=16;" parent="5XZBZ-XUVt3YNOEcqXos-5" vertex="1" connectable="0">
          <mxGeometry x="-0.091" y="4" relative="1" as="geometry">
            <mxPoint y="-3" as="offset" />
          </mxGeometry>
        </mxCell>
        <mxCell id="5XZBZ-XUVt3YNOEcqXos-8" value="" style="endArrow=none;html=1;rounded=0;entryX=0.5;entryY=1;entryDx=0;entryDy=0;exitX=1;exitY=0;exitDx=0;exitDy=0;" parent="1" source="iNq4XqtJbvF7u8kQayWp-34" target="iNq4XqtJbvF7u8kQayWp-18" edge="1">
          <mxGeometry width="50" height="50" relative="1" as="geometry">
            <mxPoint x="920" y="370" as="sourcePoint" />
            <mxPoint x="570" y="530" as="targetPoint" />
          </mxGeometry>
        </mxCell>
        <mxCell id="5XZBZ-XUVt3YNOEcqXos-9" value="" style="endArrow=none;html=1;rounded=0;entryX=1;entryY=1;entryDx=0;entryDy=0;exitX=0.342;exitY=0;exitDx=0;exitDy=0;exitPerimeter=0;" parent="1" source="5XZBZ-XUVt3YNOEcqXos-22" target="iNq4XqtJbvF7u8kQayWp-34" edge="1">
          <mxGeometry width="50" height="50" relative="1" as="geometry">
            <mxPoint x="611.94" y="643" as="sourcePoint" />
            <mxPoint x="750" y="600" as="targetPoint" />
          </mxGeometry>
        </mxCell>
        <mxCell id="5XZBZ-XUVt3YNOEcqXos-10" value="JA" style="edgeLabel;html=1;align=center;verticalAlign=middle;resizable=0;points=[];fontSize=16;" parent="5XZBZ-XUVt3YNOEcqXos-9" vertex="1" connectable="0">
          <mxGeometry x="0.0087" y="1" relative="1" as="geometry">
            <mxPoint as="offset" />
          </mxGeometry>
        </mxCell>
        <mxCell id="5XZBZ-XUVt3YNOEcqXos-11" value="" style="endArrow=none;html=1;rounded=0;exitX=0.579;exitY=0;exitDx=0;exitDy=0;exitPerimeter=0;" parent="1" source="5XZBZ-XUVt3YNOEcqXos-23" target="iNq4XqtJbvF7u8kQayWp-34" edge="1">
          <mxGeometry width="50" height="50" relative="1" as="geometry">
            <mxPoint x="450" y="690" as="sourcePoint" />
            <mxPoint x="570" y="530" as="targetPoint" />
          </mxGeometry>
        </mxCell>
        <mxCell id="5XZBZ-XUVt3YNOEcqXos-13" value="Nein" style="edgeLabel;html=1;align=center;verticalAlign=middle;resizable=0;points=[];fontSize=16;" parent="5XZBZ-XUVt3YNOEcqXos-11" vertex="1" connectable="0">
          <mxGeometry x="-0.079" relative="1" as="geometry">
            <mxPoint as="offset" />
          </mxGeometry>
        </mxCell>
        <mxCell id="5XZBZ-XUVt3YNOEcqXos-12" value="" style="endArrow=none;html=1;rounded=0;entryX=0.374;entryY=1;entryDx=0;entryDy=0;entryPerimeter=0;exitX=0.173;exitY=0.291;exitDx=0;exitDy=0;exitPerimeter=0;" parent="1" source="iNq4XqtJbvF7u8kQayWp-34" target="5XZBZ-XUVt3YNOEcqXos-1" edge="1">
          <mxGeometry width="50" height="50" relative="1" as="geometry">
            <mxPoint x="320" y="580" as="sourcePoint" />
            <mxPoint x="570" y="530" as="targetPoint" />
          </mxGeometry>
        </mxCell>
        <mxCell id="5XZBZ-XUVt3YNOEcqXos-15" value="" style="endArrow=none;html=1;rounded=0;exitX=0.781;exitY=0;exitDx=0;exitDy=0;exitPerimeter=0;entryX=0.316;entryY=0.975;entryDx=0;entryDy=0;entryPerimeter=0;" parent="1" source="5XZBZ-XUVt3YNOEcqXos-16" target="5XZBZ-XUVt3YNOEcqXos-22" edge="1">
          <mxGeometry width="50" height="50" relative="1" as="geometry">
            <mxPoint x="520" y="730" as="sourcePoint" />
            <mxPoint x="610" y="730" as="targetPoint" />
          </mxGeometry>
        </mxCell>
        <mxCell id="5XZBZ-XUVt3YNOEcqXos-16" value="exportiere zu &#39;bestellung&#39;" style="rounded=0;whiteSpace=wrap;html=1;" parent="1" vertex="1">
          <mxGeometry x="417.5" y="730" width="215" height="40" as="geometry" />
        </mxCell>
        <mxCell id="5XZBZ-XUVt3YNOEcqXos-17" value="" style="endArrow=none;html=1;rounded=0;exitX=0.5;exitY=0;exitDx=0;exitDy=0;entryX=0.5;entryY=1;entryDx=0;entryDy=0;" parent="1" source="iNq4XqtJbvF7u8kQayWp-24" edge="1" target="5XZBZ-XUVt3YNOEcqXos-16">
          <mxGeometry width="50" height="50" relative="1" as="geometry">
            <mxPoint x="520" y="910" as="sourcePoint" />
            <mxPoint x="500" y="780" as="targetPoint" />
          </mxGeometry>
        </mxCell>
        <mxCell id="5XZBZ-XUVt3YNOEcqXos-18" value="&lt;div&gt;extrakäse = bool(0)&lt;br&gt;&lt;/div&gt;" style="rounded=0;whiteSpace=wrap;html=1;" parent="1" vertex="1">
          <mxGeometry x="347.5" y="470" width="190" height="40" as="geometry" />
        </mxCell>
        <mxCell id="5XZBZ-XUVt3YNOEcqXos-21" value="" style="endArrow=none;html=1;rounded=0;entryX=0.5;entryY=1;entryDx=0;entryDy=0;exitX=0.5;exitY=0;exitDx=0;exitDy=0;" parent="1" source="iNq4XqtJbvF7u8kQayWp-34" target="5XZBZ-XUVt3YNOEcqXos-18" edge="1">
          <mxGeometry width="50" height="50" relative="1" as="geometry">
            <mxPoint x="520" y="610" as="sourcePoint" />
            <mxPoint x="570" y="560" as="targetPoint" />
          </mxGeometry>
        </mxCell>
        <mxCell id="5XZBZ-XUVt3YNOEcqXos-22" value="&lt;div&gt;scharf = bool(1)&lt;br&gt;&lt;/div&gt;" style="rounded=0;whiteSpace=wrap;html=1;" parent="1" vertex="1">
          <mxGeometry x="575" y="650" width="190" height="40" as="geometry" />
        </mxCell>
        <mxCell id="5XZBZ-XUVt3YNOEcqXos-23" value="&lt;div&gt;scharf = bool(0)&lt;br&gt;&lt;/div&gt;" style="rounded=0;whiteSpace=wrap;html=1;" parent="1" vertex="1">
          <mxGeometry x="280" y="650" width="190" height="40" as="geometry" />
        </mxCell>
        <mxCell id="5XZBZ-XUVt3YNOEcqXos-26" value="" style="endArrow=none;html=1;rounded=0;entryX=0.621;entryY=1;entryDx=0;entryDy=0;entryPerimeter=0;exitX=0.25;exitY=0;exitDx=0;exitDy=0;" parent="1" source="5XZBZ-XUVt3YNOEcqXos-16" target="5XZBZ-XUVt3YNOEcqXos-23" edge="1">
          <mxGeometry width="50" height="50" relative="1" as="geometry">
            <mxPoint x="520" y="610" as="sourcePoint" />
            <mxPoint x="570" y="560" as="targetPoint" />
          </mxGeometry>
        </mxCell>
        <mxCell id="L-Ka0n-e6maE4rKZRRBD-4" value="scharf = true ?" style="rhombus;whiteSpace=wrap;html=1;" vertex="1" parent="1">
          <mxGeometry x="457.5" y="1080" width="135" height="80" as="geometry" />
        </mxCell>
        <mxCell id="L-Ka0n-e6maE4rKZRRBD-5" value="extrakäse = true ?" style="rhombus;whiteSpace=wrap;html=1;" vertex="1" parent="1">
          <mxGeometry x="457.5" y="1280" width="135" height="80" as="geometry" />
        </mxCell>
        <mxCell id="L-Ka0n-e6maE4rKZRRBD-6" value="" style="endArrow=none;html=1;rounded=0;entryX=0;entryY=1;entryDx=0;entryDy=0;exitX=0.5;exitY=0;exitDx=0;exitDy=0;" edge="1" parent="1" source="L-Ka0n-e6maE4rKZRRBD-8" target="L-Ka0n-e6maE4rKZRRBD-4">
          <mxGeometry width="50" height="50" relative="1" as="geometry">
            <mxPoint x="450" y="1190" as="sourcePoint" />
            <mxPoint x="570" y="1130" as="targetPoint" />
          </mxGeometry>
        </mxCell>
        <mxCell id="L-Ka0n-e6maE4rKZRRBD-9" value="Ja" style="edgeLabel;html=1;align=center;verticalAlign=middle;resizable=0;points=[];fontSize=16;" vertex="1" connectable="0" parent="L-Ka0n-e6maE4rKZRRBD-6">
          <mxGeometry x="-0.0922" y="1" relative="1" as="geometry">
            <mxPoint as="offset" />
          </mxGeometry>
        </mxCell>
        <mxCell id="L-Ka0n-e6maE4rKZRRBD-7" value="" style="endArrow=none;html=1;rounded=0;entryX=1;entryY=1;entryDx=0;entryDy=0;exitX=1;exitY=0;exitDx=0;exitDy=0;" edge="1" parent="1" source="L-Ka0n-e6maE4rKZRRBD-5" target="L-Ka0n-e6maE4rKZRRBD-4">
          <mxGeometry width="50" height="50" relative="1" as="geometry">
            <mxPoint x="652.5" y="1260" as="sourcePoint" />
            <mxPoint x="695" y="1200" as="targetPoint" />
          </mxGeometry>
        </mxCell>
        <mxCell id="L-Ka0n-e6maE4rKZRRBD-10" value="Nein" style="edgeLabel;html=1;align=center;verticalAlign=middle;resizable=0;points=[];fontSize=16;" vertex="1" connectable="0" parent="L-Ka0n-e6maE4rKZRRBD-7">
          <mxGeometry x="0.0396" y="2" relative="1" as="geometry">
            <mxPoint x="1" as="offset" />
          </mxGeometry>
        </mxCell>
        <mxCell id="L-Ka0n-e6maE4rKZRRBD-8" value="preis + 0,5" style="rounded=0;whiteSpace=wrap;html=1;" vertex="1" parent="1">
          <mxGeometry x="405" y="1200" width="80" height="40" as="geometry" />
        </mxCell>
        <mxCell id="L-Ka0n-e6maE4rKZRRBD-12" value="" style="endArrow=none;html=1;rounded=0;entryX=0.5;entryY=1;entryDx=0;entryDy=0;exitX=0;exitY=0;exitDx=0;exitDy=0;" edge="1" parent="1" source="L-Ka0n-e6maE4rKZRRBD-5" target="L-Ka0n-e6maE4rKZRRBD-8">
          <mxGeometry width="50" height="50" relative="1" as="geometry">
            <mxPoint x="520" y="1150" as="sourcePoint" />
            <mxPoint x="570" y="1100" as="targetPoint" />
          </mxGeometry>
        </mxCell>
        <mxCell id="L-Ka0n-e6maE4rKZRRBD-13" value="" style="endArrow=none;html=1;rounded=0;entryX=1;entryY=1;entryDx=0;entryDy=0;" edge="1" parent="1" target="L-Ka0n-e6maE4rKZRRBD-5">
          <mxGeometry width="50" height="50" relative="1" as="geometry">
            <mxPoint x="559" y="1520" as="sourcePoint" />
            <mxPoint x="570" y="1250" as="targetPoint" />
          </mxGeometry>
        </mxCell>
        <mxCell id="L-Ka0n-e6maE4rKZRRBD-18" value="Nein" style="edgeLabel;html=1;align=center;verticalAlign=middle;resizable=0;points=[];fontSize=16;" vertex="1" connectable="0" parent="L-Ka0n-e6maE4rKZRRBD-13">
          <mxGeometry x="0.0888" y="-1" relative="1" as="geometry">
            <mxPoint as="offset" />
          </mxGeometry>
        </mxCell>
        <mxCell id="L-Ka0n-e6maE4rKZRRBD-15" value="preis + 0,5" style="rounded=0;whiteSpace=wrap;html=1;" vertex="1" parent="1">
          <mxGeometry x="402.5" y="1390" width="80" height="40" as="geometry" />
        </mxCell>
        <mxCell id="L-Ka0n-e6maE4rKZRRBD-16" value="" style="endArrow=none;html=1;rounded=0;entryX=0;entryY=1;entryDx=0;entryDy=0;exitX=0.5;exitY=0;exitDx=0;exitDy=0;" edge="1" parent="1" source="L-Ka0n-e6maE4rKZRRBD-15" target="L-Ka0n-e6maE4rKZRRBD-5">
          <mxGeometry width="50" height="50" relative="1" as="geometry">
            <mxPoint x="370" y="1400" as="sourcePoint" />
            <mxPoint x="416" y="1340" as="targetPoint" />
          </mxGeometry>
        </mxCell>
        <mxCell id="L-Ka0n-e6maE4rKZRRBD-17" value="Ja" style="edgeLabel;html=1;align=center;verticalAlign=middle;resizable=0;points=[];fontSize=16;" vertex="1" connectable="0" parent="L-Ka0n-e6maE4rKZRRBD-16">
          <mxGeometry x="-0.0922" y="1" relative="1" as="geometry">
            <mxPoint as="offset" />
          </mxGeometry>
        </mxCell>
        <mxCell id="L-Ka0n-e6maE4rKZRRBD-19" value="" style="endArrow=none;html=1;rounded=0;entryX=0.5;entryY=1;entryDx=0;entryDy=0;exitX=0.25;exitY=0;exitDx=0;exitDy=0;" edge="1" parent="1" source="iNq4XqtJbvF7u8kQayWp-31" target="L-Ka0n-e6maE4rKZRRBD-15">
          <mxGeometry width="50" height="50" relative="1" as="geometry">
            <mxPoint x="520" y="1540" as="sourcePoint" />
            <mxPoint x="570" y="1490" as="targetPoint" />
          </mxGeometry>
        </mxCell>
        <mxCell id="L-Ka0n-e6maE4rKZRRBD-20" value="" style="endArrow=none;html=1;rounded=0;entryX=0.5;entryY=1;entryDx=0;entryDy=0;exitX=0.5;exitY=0;exitDx=0;exitDy=0;" edge="1" parent="1" source="L-Ka0n-e6maE4rKZRRBD-4" target="iNq4XqtJbvF7u8kQayWp-30">
          <mxGeometry width="50" height="50" relative="1" as="geometry">
            <mxPoint x="520" y="1000" as="sourcePoint" />
            <mxPoint x="570" y="950" as="targetPoint" />
          </mxGeometry>
        </mxCell>
      </root>
    </mxGraphModel>
  </diagram>
</mxfile>
